<?xml version="1.0" encoding="UTF-8"?>
<svg xmlns="http://www.w3.org/2000/svg" viewBox="0 0 950 400">
  <g id="Base">
    <path id="RH" d="M493.37,400l-9.45-14.38c-2.64-4.01-4.75-8.5-5.59-13.28l-3.12-17.7c-2.98-16.92-6.5-17.72-10.04-32.66-1.99-8.4,3.05-15.98,11.66-17.08,5.6-.72,10.8.4,15.48,3.75,13.37,9.56,21.43,25.32,26.98,40.57,2.57,7.05,5.94,13.2,10.26,19.33l14.48,20.56c1.72,2.44,4.54,4.04,7.66,3.13,3.47-6.85,1.7-28.55.25-36.63-2.15-12.07-4.58-23.63-7.72-35.47-1.6-6.03-3.64-11.44-5.82-17.35l-25.9-70.17c-2.38-6.45-5.58-11.92-7.77-18.32-1.7-4.97-2.61-10.19-3.19-15.48-.65-5.86,1.35-11.95,5.9-15.61,5.52-4.43,13.03-3.46,18.37.99,6.85,5.71,12.12,12.63,16.37,20.53l12.66,23.49c5.08,9.42,11.32,17.42,15.38,27.38,4.23,10.38,8.53,20.35,13.31,30.53,2.02,4.3,3.94,8.94,7.17,12.36,2.02,2.14,7.62.6,9.31-1.23,2.2-2.37,2.85-5.79,2.59-8.83-.59-6.77-1.63-12.95-2.96-19.55-2.71-13.4-4.75-26.54-8.39-39.7-1.54-5.58-4.87-10.28-7.06-15.56-1.83-4.41-2.84-9.37-5.71-13.19l-10.7-14.2c-5.9-7.82-5.51-20.21,3.49-25.27,4.48-2.52,10.12-1.97,14.49.58l15.47,9.01c5.01,2.92,8.39,6.97,11.2,12.03,3.93,7.08,7.59,14.11,12.43,20.61,4.77,6.4,8.15,13.04,10.26,20.76,2,7.32,3.94,14.28,5.47,21.76,2.88,14.07,6.75,27.48,12.05,40.79.5,1.25,1.93,2.55,2.94,2.45.96-.09,2.73-1.89,2.75-3.01.14-10.2-1.02-19.92-2.16-30.16-.75-6.76-1.15-13.45-3.39-19.86-2.84-8.09-5.83-15.73-9.1-23.67-3.73-9.03-13.95-14.28-18.79-26.71-3.41-8.77-.35-18.27,7.28-20.54,4.3-1.28,8.07-.32,11.53,2.21l15.13,11.08c7.42,5.43,13.42,11.34,17.88,19.55l10.59,19.51c2.5,4.61,5.35,8.93,6.82,14.04,5.6,19.41,5.89,38.79,10.1,58.84,1.02,1.56,4.35,3.06,6.21,2.62,2.98-.69,5.42-2.98,6.89-5.63,13.77-24.77,14.62-30.11,21.44-57.4,2.56-10.22-.94-23.97,6.33-39.89,1.9-4.17,4.77-7.77,9.08-9.22,6.86-2.31,13.29,1.44,14.98,8.41,1.28,5.28,1.43,10.65,2.02,16.21,1.21,11.38,1.38,22.22-.3,33.53l-3.38,22.73c-1,6.7-2.84,12.84-5.13,19.22l-7.2,20.01-5.83,17.22c-2.25,6.65-3.76,13.41-5.1,20.37-1.56,8.08-1.69,16-2.26,24.23-.88,12.75-1.89,25.09-3.92,37.37" fill="#fff"/>
    <path id="LH" d="M368.16,400c.07-.06,1.55-2.21,1.59-2.29,15.71-24.32,15.47-26.39,19.81-54.45,1.94-12.89,17.84-33.62-.12-41.3l-.2-.08c-28.68-8.43-42.26,35.47-50.57,55.32-.02.05-.04.09-.07.14-4.2,6.96-10.57,16.15-14.95,23.09-2.14,3.13-3.55,6.41-7.35,8.08-.06.03-.12.05-.18.07-3.16.97-7.2-.72-7.56-4.27-4.43-20.76.59-41.83,4.29-62.1,6.42-28.86,17.36-57.49,26.95-85.27,5.02-14.79,13.85-27.32,14.72-41.9,0-.03,0-.05.01-.08,2.39-13.06-9.48-26.34-22.1-17.46-9.84,7.21-16.79,17.93-22.21,28.71,0,.02-.02.04-.02.05-5.82,13.63-15.46,24.95-21.47,38.4-4.73,11.1-15.4,35.97-17.45,40.79-1.64,3.29-3.49,8.87-7.15,10.04-.14.04-.28.06-.42.05-15.82-.95-7.45-22.73-6.25-32.6,2.86-14.78,3.42-30.07,9.47-44.08,2.58-6.12,5.46-12.1,8.01-18.24.01-.02.02-.05.03-.07,6.55-13.22,25.65-26.88,12.12-42-.02-.03-.05-.06-.08-.08-9.7-9.61-20.17,1.24-29.97,6.52-15.06,7.63-19.03,25.68-28.77,38.42-.02.02-.03.05-.05.07-15.33,23.76-13.66,59.06-24.39,82.07-.21.45-.71.69-1.19.58-5.85-1.42-1.04-29.39-1.86-34.82,0-.04,0-.08,0-.12-.15-7.57.8-14.84,3.77-21.85,2.89-7.49,5.72-16.96,8.75-23.73.02-.04.04-.08.06-.12,3.64-6.33,17.05-16.38,18.3-29.01,1.88-12.96-11.25-21.99-21.34-12.31-.03.02-.05.05-.08.07-13.4,9.91-27.1,19.51-33.6,35.52-.01.04-.03.08-.05.11-18.13,31.75-16.42,29.8-19.39,65.88-.59,5.57-.9,11.17-1.57,16.75-.15,1.24-1.98,1.21-2.07-.04-.23-2.87-.4-5.82-.62-8.23-.6-14.81,1.65-29.93,5.16-44.25,0-.04.02-.08.04-.12,3-8.59,8.37-16.64,9.65-26.07,0-.02,0-.04.01-.06,2.77-11.09-4.29-30.04-18.08-21.33-.13.09-.25.2-.34.34-6.63,10.31-12.68,21.39-18.75,32.13-.02.03-.03.06-.05.1-4.09,9.06-6.07,19.65-9.07,29.4-6.43,19.99-3.71,41.64-4.35,62.49-.38,28.63-4.86,65.89-5.52,93.2" fill="#fff"/>
  </g>
  <g id="active-finger">
    <path id="RP" d="M771.21,205.32c-.59-5.56-.74-10.93-2.02-16.21-1.69-6.96-8.12-10.71-14.98-8.41-4.31,1.45-7.18,5.05-9.08,9.22-7.27,15.92-3.77,29.67-6.33,39.89-6.82,27.29-7.68,32.63-21.44,57.4-.2.37-.43.72-.67,1.07.21.93.42,1.86.64,2.78,1.45-1.57,2.62-3.38,3.44-5.04,4.25-8.59,8.9-16.8,12.1-25.93,3.92-11.19,6.42-22.51,9.09-34.1,1.53-6.64-1.39-20.86,5.7-35.87,1.49-3.16,3.96-5.87,7.21-7.09,5.25-1.96,10.38.81,11.79,6.23,1.57,6.04,3.53,30.47,3.06,36.71-.89,11.88-2.92,23.26-4.42,35.11-.86,6.76-2.92,12.79-5.2,19.11l-8.04,22.39c-2.27,6.32-4.36,12.55-6.16,18.87.75.18,1.48.43,2.18.7.41-1.38.83-2.76,1.3-4.13l5.83-17.22,7.2-20.01c2.29-6.38,4.14-12.51,5.13-19.22l3.38-22.73c1.68-11.3,1.51-22.15.3-33.53Z" fill="#fff"/>
  </g>
</svg>