<?xml version="1.0" encoding="UTF-8"?>
<svg id="Layer_1" data-name="Layer 1" xmlns="http://www.w3.org/2000/svg" viewBox="0 0 950 400">
  <g id="Base">
    <path id="RH" d="M754.2,400c.37-.53.11-1.98.03-2.74-.37-4.86-1.01-10.15-1.68-15.18-1.44-10.13-1.95-20.35-2.69-30.57-.95-9.7-3.29-19.26-3.74-28.96-.76-11.82-2.91-41.03-3.22-46.1-.53-7.84-.54-16.16-3.05-23.66-4.03-10.74-7.7-30.89-15.63-41.57-3.25-5.04-9.46-14.67-12.5-19.39-1.91-2.88-3.37-5.94-7.04-7.2-5.92-1.18-11.8,3.76-13.53,8.97-5.74,15.74,7.05,31.37,11.12,44.76,3.45,15.93,5.99,29.06,5.1,42.65-.44,3.24-.54,23.76-3.84,8.29-1.68-10.27-4.09-27.93-5.25-35.44-1.87-13.26-3.43-23.56-9.08-32.67-7.61-12.71-13.21-28.47-24.63-38.54-5.48-4.6-13.3-9.23-18.86-13.65-2.18-1.74-4.58-3.41-7.31-4.12-9.72-3.05-17.05,6.92-15.26,15.95,1.8,9.42,8.59,16.77,15.17,23.32,3.18,3.25,4.44,7.15,6.09,11.2,1.92,4.77,5.21,12.97,6.87,17.1,4.52,11.28,5.78,34.07,6.35,50.15.59,4.95-3.27,9.32-5.83,2.69-3.39-9.42-6.62-18.87-9.03-28.61-4.15-15.5-5.94-31.53-13.02-45.94-5.64-9.04-12.16-17.26-16.88-26.88-3.98-8.91-11.84-13.72-20.15-18.05-7.13-4.97-16.58-10.26-24.33-3.26-13.21,13.32,2.96,27.99,10.05,38.11,2.28,4.01,3.68,8.63,5.55,12.89,2.54,6.06,5.9,11.79,7.61,18.15,3.1,11.93,5.11,25.67,7.64,37.54.77,6.03,6.34,24.42-.49,27.91-4.62,2.17-8.22,3.51-10.58-1.82-10.04-17.43-15.86-36.9-25.41-54.51-3.75-5.84-7.75-11.5-11.02-17.49-7.04-13.87-13.66-28.36-25.56-38.66-7.51-7.98-20.55-5.47-23.99,5.06-3.86,12.03,3.03,27.69,8.42,39.24,10.83,25.88,19.63,51.67,29.18,78.26,4.17,10.89,6.51,22.08,8.82,33.49,4.19,17.2,5.4,30.8,3.59,47.21-.22,7.02-7.5,3.16-9.61-.51-3.39-5.53-15.34-22.09-19.06-28.25-1.66-2.63-2.98-5.76-3.97-8.81-6.18-17.6-20.38-47.77-42.36-46.11-6.63.68-13.3,5.68-12.89,12.92.26,8.98,5.05,16.89,7.76,25.26,4.03,12.49,3.59,27.19,8.62,37.45,2.79,5.63,9.28,15.44,12.05,20.12" fill="#fff"/>
    <path id="LH" d="M111.24,400l4.1-64.64.97-13.73.26-39.72c.18-27.2,2.24-29.33,9.13-54.15,5.72-20.58,12.2-24.26,20.84-41.49,1.67-3.34,4.43-5.59,7.59-5.89,9.42-.91,13.45,8.7,13.71,17.3.43,14.4-8.74,24.3-11.47,37.47-4.03,19.42-5.23,34.56-2.33,54.55.75-3.09,1.14-6.15,1.43-9.55l2.83-32.81c.77-8.94,2.13-17.78,6.37-25.72l13.26-24.82c4.41-8.25,9.74-15.13,17.12-20.91l15.28-11.96c3.63-2.84,7.24-4.8,12.12-3.35,3.59,1.07,6.87,4.03,8.31,8.43,3.71,11.27-5.14,22.19-12.52,30.12-3.22,3.46-5.4,7.01-7.03,11.48l-7.26,19.9c-1.16,3.17-2.37,6.42-2.7,9.92-1.3,13.65-1.93,27.13-1.25,40.73.15,3.14,1.84,5.8,5.17,6.19,3.38-7.84,5.79-15.83,7.69-24.21l5.04-22.32c1.54-6.81,3.49-13.3,5.51-19.94,2.02-6.65,5.1-12.52,9.06-18.13,4.09-5.79,7.27-11.57,10.77-17.77,2.66-4.71,5.27-10.1,9.74-13.35,6.47-4.69,12.98-8.71,19.79-12.85,3.84-2.33,9.11-3.47,13.18-1.39,8.1,4.16,10.65,14.29,6.53,22.16-5.67,10.85-11,13.72-16.34,26.36l-8.14,19.25c-3.55,8.39-4.21,17.38-5.71,26.4l-5.42,32.66c-.65,3.86.21,8.32,2.91,10.99,2.71,2.68,6.74,2.94,10.18,3.99,5.08,1.54,9.67.89,13.76-2.68,11.13-9.7,31.24-38.4,40.71-51.66,3.92-5.48,7.74-10.22,12.71-14.73,9.37-8.49,17.33-17.85,24.55-28.23,4.99-7.16,16.84-21.01,23.36-26.46,1.71-1.43,4.1-2.47,5.96-3.65,4.56-2.9,9.44-4.02,14.61-1.48,3.98,1.96,7.37,5.95,7.84,11.27.32,3.66.56,7.6-.27,11.25-3.5,15.34-13.02,25.38-20.07,36.79l-12.95,20.96c-6.63,10.72-13.37,20.69-20.61,31.03-7.46,10.65-13.57,21.66-20.07,32.88-5.43,9.38-8.43,18.87-11.86,29.09l-5.5,16.4c-2.77,8.26-3.95,16.55-2.9,25.33l1.06,8.84c1.66-2.37,3.06-4.35,4.69-6.32l19.3-23.34c2.72-3.3,5.18-6.27,7.14-10.09,5.2-10.13,10.52-19.89,17.28-29.06,7.66-10.37,20.34-21.93,34.2-18.23,8.05,2.14,12.42,10.04,9.6,18.06-2.02,5.77-4.87,11.06-7.71,16.58-8.07,15.71-4.29,30.46-20.74,49.98-2.46,2.91-4.57,5.97-6.38,8.98h-2.97" fill="#fff"/>
  </g>
  <g id="active-finger">
    <path id="LI" d="M307.25,272.45c7.65-10.08,14.96-20.36,22.29-30.83,4.01-5.72,16.73-16.63,23.35-24.22,5.46-6.26,9.59-13.13,14.73-19.66,5.95-7.58,12.32-14.24,19.21-21.1-.03.09-.06.18-.09.28.67-.68,1.46-1.25,2.36-1.7,2.63-3.34,7.88-4.47,11.85-3.88,6.76,1,10.97,7.04,10.32,13.61l-.28.35c.05.48.07.96.07,1.43l.48-.58c.31,13.31-12.02,30.37-19.41,40.81-4.24,5.98-7.7,11.97-11.44,18.27-7.09,11.94-14.7,22.9-22.61,34.37-.46.66-.95,1.39-1.48,2.17.73.28,1.46.59,2.19.96.26-.37.5-.75.77-1.12,7.24-10.34,13.98-20.31,20.61-31.03l12.95-20.96c7.05-11.41,16.57-21.45,20.07-36.79.83-3.65.59-7.59.27-11.25-.47-5.32-3.86-9.31-7.84-11.27-5.17-2.54-10.05-1.42-14.61,1.48-1.86,1.18-4.25,2.22-5.96,3.65-6.52,5.45-18.37,19.3-23.36,26.46-7.22,10.38-15.18,19.74-24.55,28.23-4.97,4.51-8.79,9.25-12.71,14.73-4.61,6.46-11.75,16.58-19.15,26.39.67.36,1.33.75,1.97,1.19h0Z" fill="#fff"/>
  </g>
</svg>